<svg xmlns="http://www.w3.org/2000/svg" width="1024" height="1024" viewBox="0 0 1024 1024"><defs><style>.a{fill:#fff}.b{fill-rule:evenodd}</style></defs><rect class="a" width="1024" height="1024"/><path class="b" d="M722.113,596.847c57.284-.032,65.686,60.016,27.344,87.81-38.261,27.734-77.04,53.9-129.522,67.657-24.633,6.459-48.036,7.416-76.274,8.637-30.356,1.313-52.966,2.2-86.348,1.44-53.573-1.214-89.458,2.591-99.3-33.109-7.576-27.482,9.983-49.544,25.9-56.141,13.5-5.592,41.863-2.095,57.566-1.44,39.358,1.642,99.073-.92,132.4-4.318C653.6,659.253,688.277,603.08,722.113,596.847ZM762,261a80,80,0,1,1-80,80A80,80,0,0,1,762,261ZM261.5,309A79.5,79.5,0,1,1,182,388.5,79.5,79.5,0,0,1,261.5,309Z"/></svg>
